<?xml version="1.0" standalone="no"?>
<!DOCTYPE svg PUBLIC "-//W3C//DTD SVG 20010904//EN"
 "http://www.w3.org/TR/2001/REC-SVG-20010904/DTD/svg10.dtd">
<svg version="1.0" xmlns="http://www.w3.org/2000/svg"
 width="300.000000pt" height="255.000000pt" viewBox="0 0 300.000000 255.000000"
 preserveAspectRatio="xMidYMid meet">
<metadata>
Created by potrace 1.10, written by Peter Selinger 2001-2011
</metadata>
<g transform="translate(0.000000,255.000000) scale(0.100000,-0.100000)"
fill="#000000" stroke="none">
<path d="M50 2539 c-13 -6 -28 -15 -32 -22 -4 -7 -8 -573 -8 -1259 l0 -1248
1490 0 1490 0 0 1244 c0 1170 -1 1245 -17 1264 -10 11 -29 23 -42 27 l-24 7
22 -35 21 -34 -2 -1219 -3 -1219 -1440 -2 c-1342 -3 -1441 -2 -1453 14 -9 13
-12 273 -12 1219 l0 1201 25 37 c26 38 25 41 -15 25z"/>
<path d="M1308 2250 c-107 -22 -143 -34 -236 -76 -187 -85 -350 -241 -453
-434 -91 -170 -133 -388 -110 -567 31 -233 116 -415 270 -577 133 -138 333
-253 491 -282 14 -3 49 -9 79 -14 71 -13 221 -13 297 0 370 63 662 309 783
659 68 194 71 425 9 621 -11 36 -24 69 -29 74 -5 6 -9 16 -9 23 0 18 -91 173
-125 213 -59 68 -162 166 -210 200 -55 38 -196 112 -235 124 -206 60 -360 70
-522 36z m455 -54 c205 -60 400 -200 519 -373 46 -68 116 -222 140 -308 28
-106 31 -344 5 -449 -58 -229 -209 -453 -387 -571 -177 -118 -340 -168 -545
-168 -272 0 -502 98 -688 292 -171 179 -253 372 -264 617 -12 270 75 506 256
698 246 259 624 361 964 262z"/>
<path d="M1315 2103 c-314 -67 -568 -320 -641 -638 -26 -111 -23 -282 5 -390
44 -168 161 -350 290 -449 85 -66 192 -121 296 -152 79 -24 107 -27 225 -27
107 0 151 4 215 22 228 62 424 218 529 421 74 144 97 237 97 397 0 398 -275
735 -667 818 -88 19 -258 18 -349 -2z m277 -18 c132 -11 294 -79 410 -170 127
-99 235 -268 280 -432 27 -101 29 -286 4 -387 -58 -240 -219 -440 -441 -546
-108 -52 -179 -70 -310 -77 -241 -13 -450 68 -620 241 -165 167 -246 384 -231
616 7 113 26 189 72 288 86 187 239 336 425 412 99 41 255 72 324 64 11 -2 50
-5 87 -9z"/>
<path d="M1245 1685 c-14 -13 -25 -36 -25 -50 0 -30 49 -85 75 -85 24 0 72 27
79 45 33 86 -66 154 -129 90z m93 -46 c4 -31 -20 -53 -47 -44 -47 15 -31 79
18 73 20 -2 27 -9 29 -29z"/>
<path d="M1642 1703 c-21 -8 -43 -61 -36 -87 15 -60 98 -82 135 -37 55 68 -17
157 -99 124z m76 -64 c4 -31 -20 -53 -47 -44 -47 15 -31 79 18 73 20 -2 27 -9
29 -29z"/>
<path d="M1503 1630 c5 -18 0 -20 -40 -20 -37 0 -44 -3 -41 -17 3 -15 16 -19
66 -21 85 -4 103 10 66 50 -33 33 -59 38 -51 8z"/>
<path d="M1420 1538 c1 -16 46 -68 60 -68 10 0 13 11 8 28 -2 4 17 9 42 12 31
3 45 10 45 20 0 12 -17 16 -77 18 -59 2 -78 0 -78 -10z"/>
<path d="M1224 1502 c-22 -14 -29 -48 -28 -127 1 -44 2 -86 3 -93 1 -10 27
-12 109 -10 l107 3 0 103 c0 127 -5 132 -109 132 -39 0 -76 -4 -82 -8z m154
-114 l3 -78 -76 0 -75 0 0 73 c0 41 3 77 7 81 4 4 37 6 73 4 l65 -3 3 -77z"/>
<path d="M1596 1494 c-13 -12 -16 -38 -16 -120 l0 -105 108 3 107 3 3 94 c4
131 -3 141 -108 141 -58 0 -83 -4 -94 -16z m162 -106 l3 -78 -71 0 -70 0 0 80
0 81 68 -3 67 -3 3 -77z"/>
<path d="M962 1138 c-22 -11 -39 -49 -33 -78 8 -41 63 -64 100 -41 21 13 5 28
-33 33 -20 2 -32 0 -29 -6 4 -5 1 -6 -6 -2 -7 5 -10 15 -7 23 4 9 1 23 -6 32
-11 14 -11 14 3 4 19 -16 33 -5 18 13 -8 9 -1 8 21 -3 27 -13 34 -13 41 -2 15
26 -32 44 -69 27z"/>
<path d="M1110 1140 c11 -8 8 -9 -11 -5 -21 5 -30 1 -43 -16 -21 -31 -20 -51
5 -83 26 -33 68 -35 95 -4 10 12 14 19 9 15 -15 -8 -17 34 -2 51 9 11 7 18
-12 33 -13 11 -31 19 -40 19 -14 0 -14 -2 -1 -10z m34 -48 c-3 -9 -10 -27 -16
-39 -10 -20 -12 -20 -28 -5 -9 9 -20 28 -23 40 -3 13 -3 22 -1 19 3 -3 17 -2
32 3 33 9 43 4 36 -18z"/>
<path d="M1186 1140 c-7 -18 -10 -65 -8 -102 1 -20 7 -28 21 -28 14 0 20 9 23
35 5 44 1 44 -17 3 l-14 -33 -1 53 c0 28 1 52 3 52 2 0 16 -14 33 -32 16 -17
22 -27 14 -22 -8 4 -4 -6 10 -23 40 -51 51 -43 48 34 -2 55 -6 68 -20 71 -14
3 -18 -3 -18 -27 0 -34 16 -50 23 -24 3 10 5 -4 6 -30 1 -28 -3 -46 -9 -42 -5
3 -7 12 -4 20 4 9 -12 34 -39 62 -34 35 -47 44 -51 33z"/>
<path d="M1317 1143 c-4 -3 -7 -35 -7 -70 0 -56 2 -63 20 -63 13 0 20 7 20 20
0 11 -4 20 -10 20 -5 0 -10 8 -10 17 0 13 10 7 38 -20 21 -20 41 -37 45 -37
16 0 -16 42 -53 69 -22 16 -36 31 -33 35 4 3 18 -4 31 -16 22 -21 24 -21 14
-3 -14 28 -47 56 -55 48z"/>
<path d="M1393 1110 c4 -29 2 -38 -6 -33 -7 4 -5 -1 3 -11 17 -22 24 -9 18 39
-2 18 0 31 4 29 4 -3 8 0 8 5 0 6 -7 11 -16 11 -14 0 -16 -7 -11 -40z"/>
<path d="M1443 1143 c-9 -3 -13 -27 -13 -69 l0 -64 45 0 c33 0 45 4 45 15 0
18 -4 18 -48 6 l-32 -10 0 55 c0 30 5 54 10 54 6 0 10 -9 10 -19 0 -12 8 -21
23 -24 19 -4 18 -4 -5 -6 -38 -1 -36 -21 2 -21 23 0 30 4 30 20 0 13 -7 20
-20 20 -11 0 -20 4 -20 9 0 4 11 6 25 3 20 -3 25 0 25 17 0 17 -6 21 -32 20
-18 0 -39 -3 -45 -6z"/>
<path d="M1573 1140 c-71 -29 -46 -135 30 -128 24 2 32 8 32 23 0 17 -6 19
-34 17 -32 -4 -33 -3 -29 27 2 16 1 28 -3 25 -4 -2 -10 0 -14 5 -5 10 17 8 55
-4 25 -8 34 22 10 35 -21 11 -18 11 -47 0z"/>
<path d="M1650 1130 c0 -11 7 -20 15 -20 11 0 15 -12 15 -50 0 -43 3 -50 20
-50 22 0 25 17 11 68 -9 30 -8 32 15 32 17 0 24 5 24 20 0 17 -7 20 -50 20
-43 0 -50 -3 -50 -20z"/>
<path d="M1850 1091 c0 -68 13 -84 62 -79 24 2 33 8 32 20 -1 10 2 15 7 12 5
-3 9 17 9 44 0 34 -5 52 -14 55 -21 8 -25 -1 -19 -39 3 -19 1 -40 -6 -47 -6
-8 -7 -17 -3 -22 4 -4 -3 -2 -15 4 -19 10 -23 20 -23 61 0 38 -4 50 -15 50
-12 0 -15 -13 -15 -59z"/>
<path d="M1987 1132 c-23 -25 -21 -37 8 -60 14 -11 25 -25 25 -32 0 -10 -4
-10 -15 0 -12 10 -19 10 -28 1 -9 -9 -9 -14 3 -21 50 -32 110 23 65 60 -12 10
-18 10 -32 -1 -16 -12 -17 -12 -6 2 7 9 9 19 5 24 -4 4 2 5 14 1 13 -4 26 -1
33 7 8 11 5 16 -15 25 -33 16 -38 15 -57 -6z"/>
<path d="M1929 945 c-3 -6 -2 -26 2 -45 4 -22 7 -27 8 -12 0 12 6 22 11 22 6
0 11 -10 11 -22 1 -20 2 -21 6 -4 3 11 -1 24 -9 30 -8 6 -17 18 -20 26 -2 7
-7 10 -9 5z"/>
<path d="M920 905 c0 -30 3 -35 24 -35 31 0 36 8 29 43 -4 20 -11 27 -29 27
-21 0 -24 -5 -24 -35z"/>
<path d="M1678 924 c-3 -2 -3 -15 -1 -28 4 -20 11 -24 45 -24 35 -1 39 2 36
21 -2 16 -10 22 -29 23 -14 1 -31 4 -36 7 -6 4 -12 4 -15 1z"/>
<path d="M1893 904 c3 -36 23 -42 21 -7 0 15 -6 29 -12 31 -6 2 -10 -8 -9 -24z"/>
<path d="M1047 914 c-11 -11 -8 -44 3 -44 6 0 10 9 10 20 0 27 17 25 23 -2 5
-20 5 -20 4 2 -2 24 -26 38 -40 24z"/>
<path d="M1104 905 c-7 -18 3 -35 22 -35 8 0 13 -4 9 -10 -3 -5 -13 -6 -23 -3
-13 5 -15 3 -5 -7 20 -22 43 -4 43 35 0 29 -4 35 -20 35 -11 0 -23 -7 -26 -15z"/>
<path d="M1191 893 c2 -24 2 -25 6 -5 2 12 8 22 13 22 5 0 11 -10 13 -22 4
-20 4 -19 6 5 1 21 -4 27 -19 27 -15 0 -20 -6 -19 -27z"/>
<path d="M1246 904 c-8 -20 1 -34 20 -34 8 0 13 -4 9 -10 -3 -5 -13 -6 -22 -3
-11 4 -14 3 -9 -5 18 -30 56 2 56 47 0 26 -45 30 -54 5z"/>
<path d="M1331 878 c1 -24 3 -35 6 -25 2 9 13 17 24 17 30 0 22 44 -8 48 -21
3 -23 0 -22 -40z"/>
<path d="M1394 906 c-8 -22 4 -36 29 -35 20 1 20 2 -3 9 -25 8 -25 8 -2 9 14
1 22 6 20 14 -7 18 -37 21 -44 3z"/>
<path d="M1457 914 c-4 -4 -7 -16 -7 -26 0 -14 6 -19 23 -16 14 2 22 10 22 23
0 20 -25 32 -38 19z"/>
<path d="M1511 878 c1 -24 3 -35 6 -25 2 9 13 17 24 17 30 0 22 44 -8 48 -21
3 -23 0 -22 -40z"/>
<path d="M1603 909 c-17 -17 -4 -39 21 -38 20 0 20 1 1 9 -18 8 -18 9 -2 9 10
1 17 6 15 13 -6 17 -22 20 -35 7z"/>
<path d="M1776 904 c-8 -20 1 -34 20 -34 8 0 13 -4 9 -10 -3 -5 -13 -6 -23 -3
-13 5 -15 3 -5 -7 20 -22 43 -4 43 35 0 28 -4 35 -19 35 -10 0 -22 -7 -25 -16z"/>
<path d="M1836 905 c-8 -23 1 -35 27 -34 21 0 21 1 2 9 -18 8 -18 9 -2 9 10 1
17 7 15 14 -7 19 -35 20 -42 2z"/>
<path d="M1984 906 c-8 -20 3 -36 24 -35 14 0 13 2 -3 9 -19 8 -19 9 3 9 14 1
22 6 20 14 -7 18 -37 21 -44 3z"/>
</g>
</svg>
