<?xml version="1.0" standalone="no"?>
<!DOCTYPE svg PUBLIC "-//W3C//DTD SVG 20010904//EN"
 "http://www.w3.org/TR/2001/REC-SVG-20010904/DTD/svg10.dtd">
<svg version="1.0" xmlns="http://www.w3.org/2000/svg"
 width="300.000000pt" height="300.000000pt" viewBox="0 0 300.000000 300.000000"
 preserveAspectRatio="xMidYMid meet">
<metadata>
Created by potrace 1.10, written by Peter Selinger 2001-2011
</metadata>
<g transform="translate(0.000000,300.000000) scale(0.100000,-0.100000)"
fill="#000000" stroke="none">
<path d="M1333 2989 c-357 -32 -731 -229 -970 -511 -176 -208 -286 -436 -339
-703 -25 -126 -25 -434 -1 -558 35 -173 118 -386 205 -521 219 -342 559 -578
962 -669 81 -18 126 -21 310 -21 183 0 229 3 310 21 307 69 567 216 782 442
401 421 517 1053 295 1600 -209 515 -696 876 -1243 921 -134 11 -179 11 -311
-1z m454 -48 c605 -128 1047 -576 1169 -1186 27 -135 25 -415 -4 -551 -124
-577 -533 -1008 -1092 -1150 -269 -69 -582 -55 -850 36 -697 238 -1119 989
-960 1710 63 288 190 519 400 730 239 240 524 383 861 430 102 14 370 4 476
-19z"/>
<path d="M1351 2789 c-373 -39 -727 -255 -938 -573 -233 -349 -284 -790 -138
-1182 112 -297 346 -561 624 -701 199 -100 377 -143 597 -143 432 0 841 215
1078 569 163 241 234 492 223 780 -8 196 -40 334 -121 515 -61 134 -200 316
-323 421 -214 183 -448 284 -725 314 -109 12 -156 12 -277 0z m424 -68 c381
-91 689 -334 855 -676 144 -296 168 -629 69 -942 -114 -361 -404 -663 -767
-799 -142 -54 -233 -68 -437 -68 -165 -1 -202 2 -280 22 -123 31 -216 66 -304
113 -352 189 -595 526 -662 918 -15 85 -15 317 0 402 29 169 105 360 203 509
90 138 280 310 438 398 257 143 599 191 885 123z"/>
<path d="M1145 2146 c-42 -18 -65 -57 -65 -107 0 -51 25 -94 66 -114 41 -19
65 -19 107 1 89 42 89 177 1 219 -39 18 -69 19 -109 1z m95 -66 c47 -47 -1
-124 -63 -101 -42 16 -51 80 -15 105 30 21 54 20 78 -4z"/>
<path d="M1732 2143 c-40 -20 -62 -59 -62 -113 0 -32 7 -48 33 -75 77 -84 210
-33 210 80 0 95 -94 151 -181 108z m102 -62 c27 -30 18 -83 -18 -100 -25 -12
-31 -11 -55 6 -33 26 -39 65 -12 92 26 26 63 27 85 2z"/>
<path d="M1509 2054 c-10 -13 -10 -19 0 -36 12 -19 10 -20 -46 -18 -76 3 -80
2 -87 -15 -12 -32 22 -45 119 -45 51 0 100 3 109 6 27 10 18 48 -22 87 -42 41
-53 44 -73 21z"/>
<path d="M1387 1903 c-16 -15 -5 -41 31 -76 21 -20 46 -37 55 -37 23 0 33 26
17 45 -11 13 -4 15 53 15 54 0 68 3 76 18 18 34 -6 42 -119 42 -59 0 -110 -3
-113 -7z"/>
<path d="M1079 1835 c-15 -8 -32 -29 -38 -46 -14 -40 -15 -296 -1 -304 12 -7
320 -8 327 -1 3 3 5 74 4 158 l-1 153 -30 28 c-29 26 -35 27 -133 27 -69 -1
-111 -5 -128 -15z m218 -53 c8 -5 13 -48 15 -125 l3 -117 -110 0 -111 0 2 114
c1 63 5 120 9 125 7 13 173 15 192 3z"/>
<path d="M1660 1823 l-31 -28 0 -153 c-1 -84 1 -155 4 -158 7 -7 315 -6 327 1
6 4 10 64 10 146 0 205 -11 219 -180 219 -95 0 -101 -1 -130 -27z m236 -44 c4
-7 7 -63 8 -125 l1 -114 -110 0 -110 0 3 112 c1 62 5 119 7 126 6 16 191 17
201 1z"/>
<path d="M674 1264 c-91 -45 -60 -194 41 -194 61 0 93 28 64 57 -8 8 -20 8
-41 1 -23 -8 -33 -7 -48 7 -42 38 -11 91 47 82 26 -5 35 -2 44 14 12 23 12 22
-18 38 -29 15 -52 14 -89 -5z m5 -25 c-23 -19 -23 -20 -2 -10 34 17 38 13 9
-10 -30 -23 -33 -54 -10 -88 14 -20 23 -22 55 -18 44 6 60 -7 30 -22 -56 -31
-131 16 -131 82 0 34 36 87 61 87 6 0 1 -9 -12 -21z m90 12 c12 -8 9 -11 -12
-17 -30 -7 -43 -1 -32 15 8 13 25 14 44 2z"/>
<path d="M647 1213 c-17 -16 -6 -75 18 -98 23 -24 78 -34 89 -17 2 4 -10 6
-28 4 -48 -6 -79 29 -73 81 5 39 5 41 -6 30z"/>
<path d="M848 1263 c-88 -56 -50 -193 52 -193 48 0 95 39 104 85 4 25 2 22
-14 -12 -10 -24 -25 -43 -31 -43 -8 0 -7 6 4 18 8 9 15 34 15 57 0 28 -3 34
-8 21 -6 -19 -7 -19 -12 2 -4 12 -20 28 -38 36 l-32 13 26 7 c33 8 42 3 67
-38 12 -20 19 -25 19 -14 0 57 -98 96 -152 61z m22 -13 c-13 -9 -13 -10 0 -10
13 0 13 -2 0 -9 -8 -6 -18 -7 -24 -4 -5 4 -6 1 -1 -7 5 -8 4 -11 -1 -7 -16 9
-3 -66 14 -85 16 -18 58 -24 79 -10 7 4 16 19 22 32 7 18 10 20 10 8 1 -10 -8
-27 -19 -38 -12 -12 -15 -20 -7 -20 8 0 7 -4 -3 -10 -51 -33 -130 19 -130 85
0 37 35 85 62 85 9 0 9 -3 -2 -10z m75 -81 c0 -27 -5 -35 -27 -43 -59 -21 -94
63 -38 91 36 18 65 -4 65 -48z"/>
<path d="M822 1177 c-3 -50 33 -88 80 -85 l33 1 -31 4 c-41 5 -71 39 -77 83
l-4 35 -1 -38z"/>
<path d="M1017 1273 c-8 -16 -5 -203 4 -203 5 0 9 37 9 82 0 45 3 78 7 75 3
-4 5 -41 4 -82 -2 -62 0 -75 13 -75 12 0 16 11 16 47 l0 47 48 -47 c26 -26 53
-47 60 -47 9 0 12 29 12 105 l0 105 -25 0 c-23 0 -25 -3 -24 -47 2 -48 2 -48
8 -10 11 68 26 40 29 -55 l3 -93 -66 65 c-36 36 -60 67 -54 69 6 2 -2 17 -17
35 -16 17 6 -3 49 -44 l77 -74 -2 69 -1 70 -6 -53 -6 -53 -60 61 c-59 59 -70
67 -78 53z m44 -146 c-4 -61 -11 -59 -11 3 0 29 3 50 7 46 4 -4 6 -26 4 -49z"/>
<path d="M1260 1235 c24 -24 46 -42 49 -40 6 7 -70 85 -83 85 -6 0 10 -20 34
-45z"/>
<path d="M1330 1235 c0 -49 16 -62 23 -17 3 19 4 14 6 -15 1 -45 -8 -53 -29
-28 -7 8 -16 13 -20 10 -3 -2 -24 14 -45 35 -22 22 -43 40 -47 40 -4 0 -7 -44
-6 -97 l2 -98 3 83 c2 45 7 82 10 82 4 0 24 -17 45 -37 21 -20 38 -31 38 -23
0 9 9 5 25 -10 16 -15 21 -26 15 -30 -7 -5 -6 -11 3 -18 12 -10 14 -1 16 60 1
48 -2 74 -11 79 -7 4 -9 11 -6 14 19 19 28 -14 28 -97 l0 -91 -25 23 c-13 12
-22 26 -20 30 6 9 -20 32 -27 25 -2 -3 -17 9 -33 25 -16 17 -32 30 -37 30 -4
0 -8 -31 -8 -70 0 -63 2 -70 20 -70 17 0 20 7 20 39 0 49 -17 63 -23 19 -3
-29 -4 -28 -5 10 -1 23 2 42 6 42 4 0 32 -25 62 -55 30 -30 60 -55 67 -55 10
0 13 26 13 105 l0 105 -30 0 c-29 0 -30 -2 -30 -45z"/>
<path d="M1402 1178 l-2 -108 70 0 c68 0 70 1 70 25 0 22 -4 25 -38 25 -21 0
-43 5 -50 12 -9 9 -12 8 -12 -4 0 -13 11 -18 42 -20 69 -5 60 -28 -11 -28
l-60 0 -4 103 -3 102 -2 -107z"/>
<path d="M1420 1225 l0 -55 43 2 42 1 -38 4 c-38 4 -38 4 -35 46 l3 42 44 0
c27 0 46 -5 49 -12 2 -9 -7 -13 -27 -13 -17 0 -31 -4 -31 -10 0 -5 16 -10 35
-10 32 0 35 2 35 30 0 30 0 30 -60 30 l-60 0 0 -55z"/>
<path d="M1609 1265 c-35 -19 -61 -74 -53 -114 13 -63 97 -101 155 -71 22 13
24 20 6 44 -11 15 -17 16 -40 5 -23 -10 -30 -10 -47 6 -44 40 -15 92 45 81 28
-6 35 -4 35 9 0 9 -10 20 -22 25 -17 6 -18 9 -6 9 9 1 20 -3 23 -9 3 -5 12
-10 18 -10 7 1 1 10 -12 20 -27 23 -65 25 -102 5z m-7 -27 c-19 -19 -14 -33 6
-15 10 10 25 17 33 17 9 0 7 -5 -6 -12 -58 -33 -43 -108 25 -121 l25 -4 -27
-2 c-15 0 -30 4 -33 9 -3 6 -11 10 -17 10 -6 0 -5 -7 3 -17 7 -10 1 -7 -14 6
-15 14 -27 32 -26 40 0 10 4 6 10 -8 14 -35 18 -23 9 29 -4 25 -8 36 -10 25
-1 -12 -4 -15 -7 -7 -5 13 22 62 34 62 4 0 2 -5 -5 -12z m108 -132 c0 -17 -23
-26 -58 -25 -23 1 -22 3 8 8 20 4 34 12 33 19 -2 7 2 12 7 12 6 0 10 -6 10
-14z"/>
<path d="M1740 1265 c0 -12 13 -15 68 -13 l67 1 -60 7 -60 7 59 -1 c38 -1 61
-6 64 -13 2 -9 -8 -13 -32 -13 l-36 0 2 -77 2 -78 3 74 4 73 34 -5 c33 -5 35
-4 35 24 l0 29 -75 0 c-60 0 -75 -3 -75 -15z"/>
<path d="M2047 1273 c-2 -5 -1 -45 2 -91 7 -96 19 -112 86 -112 30 0 47 6 63
23 19 21 22 33 20 108 l-2 84 -5 -82 c-7 -98 -23 -123 -76 -123 -59 0 -75 26
-73 118 l2 77 3 -65 c4 -79 10 -110 23 -110 5 0 7 8 3 18 -5 14 -3 15 8 5 17
-17 54 -17 67 0 6 7 13 40 15 72 4 53 4 52 3 -12 -1 -39 2 -69 6 -67 5 3 8 41
8 85 0 62 -3 79 -15 79 -11 0 -15 -17 -17 -71 -3 -75 -17 -99 -52 -86 -13 5
-16 21 -16 82 0 73 -1 75 -24 75 -14 0 -27 -3 -29 -7z m40 -110 c-2 -21 -4 -6
-4 32 0 39 2 55 4 38 2 -18 2 -50 0 -70z"/>
<path d="M2260 1258 c-36 -39 -20 -87 37 -109 12 -4 23 -13 23 -19 0 -13 -33
-13 -47 1 -7 7 -15 3 -26 -14 -15 -23 -15 -25 9 -36 42 -19 91 -14 108 11 32
45 16 79 -48 107 -20 8 -26 15 -19 22 8 8 18 7 34 -1 19 -11 24 -10 36 6 18
25 17 29 -12 42 -39 18 -72 14 -95 -10z m60 -13 l35 -14 -35 2 c-49 3 -54 -27
-6 -47 19 -8 40 -24 46 -36 9 -17 9 -21 0 -15 -9 5 -10 2 -6 -13 4 -11 2 -23
-3 -27 -7 -4 -8 1 -4 12 5 15 3 16 -8 6 -15 -15 -48 -17 -69 -3 -10 6 -4 8 21
4 42 -7 58 8 37 34 -12 15 -11 16 5 3 10 -8 17 -9 17 -3 0 13 -32 32 -52 32
-9 0 -9 -3 2 -10 10 -6 11 -10 3 -10 -16 0 -53 36 -53 51 0 15 19 49 28 48 4
0 23 -7 42 -14z"/>
<path d="M1447 1253 c-4 -3 -7 -19 -7 -35 0 -25 3 -28 35 -28 24 0 35 -5 35
-15 0 -11 -12 -15 -45 -15 -45 0 -45 0 -45 -35 l0 -35 53 2 52 2 -48 3 c-43 4
-48 7 -45 26 3 19 10 22 51 25 42 3 47 6 47 27 0 20 -6 24 -37 27 -30 2 -38 7
-38 23 0 14 9 22 30 26 l30 7 -31 1 c-17 0 -34 -2 -37 -6z"/>
<path d="M1760 1232 c24 -8 25 -10 21 -85 l-3 -77 31 0 31 0 -2 78 -2 77 -3
-72 c-3 -55 -7 -73 -18 -73 -11 0 -15 19 -17 78 l-3 77 -30 2 c-28 2 -28 1 -5
-5z"/>
<path d="M1070 1204 c0 -5 23 -32 50 -59 28 -27 50 -45 50 -39 0 5 -22 32 -50
59 -27 27 -50 45 -50 39z"/>
<path d="M2173 915 c0 -44 2 -59 6 -40 9 42 41 47 41 6 0 -17 4 -31 8 -31 5 0
6 17 2 38 -5 30 -10 37 -27 35 -18 -2 -23 4 -26 30 -2 17 -4 1 -4 -38z"/>
<path d="M1620 910 c0 -33 4 -60 10 -60 6 0 10 27 10 60 0 33 -4 60 -10 60 -6
0 -10 -27 -10 -60z"/>
<path d="M610 905 l0 -56 38 3 37 3 0 50 0 50 -38 3 -37 3 0 -56z m60 30 c0
-8 -9 -15 -20 -15 -11 0 -20 7 -20 15 0 8 9 15 20 15 11 0 20 -7 20 -15z m5
-55 c0 -8 -10 -16 -22 -18 -18 -3 -23 2 -23 18 0 16 5 21 23 18 12 -2 22 -10
22 -18z"/>
<path d="M1788 938 c-3 -7 -3 -30 0 -50 3 -31 8 -38 26 -38 12 0 16 3 10 8 -6
4 -14 17 -18 29 -5 15 -2 22 10 25 14 3 14 5 -4 21 -15 13 -21 15 -24 5z"/>
<path d="M2118 938 c-3 -7 -3 -30 0 -50 3 -31 8 -38 26 -38 12 0 16 3 10 8
-13 9 -25 52 -14 52 4 0 6 9 3 20 -6 23 -19 26 -25 8z"/>
<path d="M710 888 c0 -21 5 -38 10 -38 6 0 10 14 10 30 0 17 5 30 10 30 6 0
10 4 10 9 0 6 -9 9 -20 8 -16 -1 -20 -8 -20 -39z"/>
<path d="M818 923 c-13 -3 -18 -15 -18 -39 0 -19 5 -34 10 -34 6 0 10 14 10
30 0 20 5 30 15 30 10 0 15 -10 15 -30 0 -16 5 -30 10 -30 14 0 12 54 -2 68
-7 7 -14 11 -17 11 -4 -1 -14 -3 -23 -6z"/>
<path d="M900 916 c-6 -8 -10 -25 -8 -38 2 -18 9 -23 31 -23 15 1 27 -5 27
-11 0 -17 -22 -23 -44 -12 -14 8 -17 7 -14 -4 3 -7 17 -14 31 -16 21 -3 29 2
37 23 18 46 13 82 -12 89 -32 8 -34 8 -48 -8z m48 -28 c-3 -25 -17 -32 -37
-19 -19 12 -6 41 19 41 16 0 21 -5 18 -22z"/>
<path d="M1038 923 c-13 -3 -18 -15 -18 -39 0 -19 5 -34 10 -34 6 0 10 14 10
30 0 20 5 30 15 30 10 0 15 -10 15 -30 0 -16 5 -30 10 -30 17 0 12 67 -6 74
-9 3 -16 5 -17 5 -1 -1 -10 -3 -19 -6z"/>
<path d="M1122 918 c-7 -7 -12 -22 -12 -35 0 -18 7 -25 30 -29 17 -4 30 -10
30 -14 0 -14 -24 -18 -44 -8 -14 8 -17 7 -14 -4 6 -18 46 -23 64 -8 8 7 14 30
14 55 0 36 -4 44 -22 49 -31 8 -32 8 -46 -6z m48 -28 c0 -24 -26 -38 -42 -22
-16 16 -2 42 22 42 13 0 20 -7 20 -20z"/>
<path d="M1258 923 c-14 -4 -18 -15 -18 -59 0 -30 5 -54 10 -54 6 0 10 9 10
20 0 15 7 20 25 20 14 0 29 8 35 19 13 25 13 27 -6 45 -16 16 -24 17 -56 9z
m52 -33 c0 -24 -26 -38 -42 -22 -16 16 -2 42 22 42 13 0 20 -7 20 -20z"/>
<path d="M1350 916 c-19 -24 -8 -61 19 -64 13 -2 28 2 35 8 8 9 4 10 -15 5
-16 -4 -30 -2 -33 4 -5 7 4 11 23 11 32 0 41 16 19 38 -16 16 -33 15 -48 -2z"/>
<path d="M1440 916 c-19 -23 -8 -61 18 -64 44 -7 67 32 36 62 -19 20 -38 20
-54 2z m50 -26 c0 -24 -26 -38 -42 -22 -16 16 -2 42 22 42 13 0 20 -7 20 -20z"/>
<path d="M1538 923 c-14 -4 -18 -15 -18 -59 0 -30 5 -54 10 -54 6 0 10 9 10
19 0 14 8 21 28 23 30 3 42 38 22 64 -13 14 -21 15 -52 7z m50 -36 c2 -9 -4
-20 -12 -23 -21 -8 -46 13 -39 32 8 20 47 13 51 -9z"/>
<path d="M1674 922 c-17 -11 -22 -35 -12 -54 9 -20 53 -24 63 -8 4 7 -2 9 -18
5 -14 -4 -28 -2 -31 4 -5 7 4 11 23 11 32 0 41 16 19 38 -14 14 -28 15 -44 4z"/>
<path d="M1846 908 c-11 -15 -12 -26 -5 -40 13 -24 55 -23 69 1 13 25 13 27
-6 45 -21 22 -40 20 -58 -6z m52 -21 c4 -20 -25 -34 -40 -19 -15 15 -1 44 19
40 10 -2 19 -11 21 -21z"/>
<path d="M1942 918 c-28 -28 -1 -75 38 -65 17 4 18 2 9 -14 -11 -22 -20 -24
-37 -7 -13 13 -27 5 -17 -11 8 -15 48 -14 63 1 7 7 12 31 12 54 0 35 -4 43
-22 48 -31 8 -32 8 -46 -6z m51 -22 c3 -8 -1 -20 -9 -27 -12 -10 -18 -9 -31 3
-8 9 -12 21 -9 27 10 16 43 14 49 -3z"/>
<path d="M2036 908 c-11 -15 -12 -26 -5 -40 10 -19 54 -25 64 -8 4 7 -2 9 -18
5 -14 -4 -28 -2 -31 4 -5 7 4 11 23 11 32 0 41 16 19 38 -18 18 -35 15 -52
-10z"/>
<path d="M2266 914 c-9 -8 -16 -21 -16 -28 0 -30 51 -49 66 -25 4 7 0 9 -14 5
-11 -4 -23 -2 -27 4 -4 6 4 10 19 10 32 0 40 14 20 34 -19 20 -29 20 -48 0z"/>
<path d="M2340 888 c0 -21 5 -38 10 -38 6 0 10 12 10 26 0 15 8 33 18 40 15
12 14 13 -10 12 -25 -2 -28 -6 -28 -40z"/>
<path d="M760 885 c0 -19 5 -35 10 -35 6 0 10 16 10 35 0 19 -4 35 -10 35 -5
0 -10 -16 -10 -35z"/>
</g>
</svg>
